<svg width="30" height="30" viewBox="0 0 30 30" fill="none" xmlns="http://www.w3.org/2000/svg">
<path d="M23.821 18.4001C22.9917 18.4001 22.2003 18.5547 21.477 18.834L20.1683 16.5698L21.8009 13.7453H23.0859C23.7522 13.7453 24.2943 14.2541 24.2943 14.8795C24.2943 15.2248 24.5925 15.5047 24.9603 15.5047C25.3282 15.5047 25.6264 15.2248 25.6264 14.8795C25.6264 13.5646 24.4867 12.4949 23.0859 12.4949H21.5643L17.6023 10.6005C17.634 10.4101 17.6513 10.2254 17.6501 10.0461C17.6398 8.49242 16.3007 7.7087 15.2947 7.25444C14.4877 6.88964 13.799 6.71228 13.1893 6.71228C11.1992 6.71228 10.2515 8.56394 9.15447 10.7074C8.06308 12.8344 7.78081 14.1378 8.1801 15.2061C8.42208 15.8534 8.9075 16.3744 9.68844 16.8178L8.52305 18.834C7.79986 18.5546 7.00839 18.4001 6.17909 18.4001C2.7719 18.4001 0 21.0019 0 24.2001C0 27.3981 2.77197 30 6.17909 30C9.36121 30 11.9889 27.7304 12.3222 24.8252H14.8868L15.7211 25.0997C15.794 25.1237 15.8683 25.135 15.9414 25.135C16.2164 25.135 16.4739 24.9738 16.5699 24.7164C16.6916 24.3906 16.5088 24.0338 16.1617 23.9197L15.9584 23.8528L19.4104 17.8808L20.307 19.432C18.6978 20.48 17.6418 22.2264 17.6418 24.2001C17.6418 27.3981 20.4137 30 23.8208 30C27.228 30 30 27.3982 30 24.2001C30.0001 21.0019 27.2281 18.4001 23.821 18.4001ZM10.355 11.2494C11.5245 8.96412 12.1461 7.96264 13.1893 7.96264C13.5945 7.96264 14.0941 8.0995 14.7171 8.38108C16.0544 8.98494 16.2941 9.50891 16.3161 9.98555L14.7313 9.22783C14.4036 9.07097 14.0025 9.19338 13.8355 9.50109C13.6685 9.80874 13.7989 10.1852 14.1267 10.3419L16.0448 11.259C15.8196 11.8543 15.47 12.555 15.0516 13.3708C14.3806 14.6815 13.8042 15.5081 13.2315 15.9446H10.7633C10.0259 15.6033 9.60312 15.2361 9.43708 14.792C9.17485 14.0904 9.45786 12.9979 10.355 11.2494ZM10.8801 17.3783C12.3425 18.0686 13.2401 18.8689 13.615 19.8142C14.0133 20.8185 13.8423 22.0604 13.1064 23.5053C13.0948 23.528 13.0852 23.5514 13.0767 23.5749H12.3222C12.1256 21.8607 11.13 20.3679 9.69291 19.432L10.8801 17.3783ZM10.9793 23.5749H7.29839L9.05303 20.5392C10.0797 21.2512 10.7967 22.3339 10.9793 23.5749ZM6.17922 28.7496C3.50656 28.7496 1.33217 26.7087 1.33217 24.2001C1.33217 21.6914 3.50656 19.6505 6.17922 19.6505C6.77867 19.6505 7.35267 19.7539 7.88305 19.9414L5.59376 23.902C5.4818 24.0957 5.48679 24.3305 5.60682 24.5198C5.72691 24.7092 5.94437 24.8253 6.17915 24.8253H10.9792C10.6536 27.039 8.62576 28.7496 6.17922 28.7496ZM14.6851 23.434L14.6052 23.4078C15.2408 21.9023 15.328 20.5491 14.8634 19.3779C14.5665 18.6291 14.0504 17.9623 13.3041 17.3676C13.4272 17.3183 13.5468 17.2605 13.6634 17.195H18.2914L14.6851 23.434ZM19.0142 15.9447H15.0224C15.4528 15.3814 15.8523 14.6937 16.252 13.9129C16.6509 13.1354 16.9922 12.4497 17.2383 11.8297L20.4931 13.386L19.0142 15.9447ZM23.821 28.7496C21.1484 28.7496 18.974 26.7087 18.974 24.2001C18.974 22.7005 19.7513 21.3685 20.9472 20.5392L23.2356 24.4981C23.3562 24.707 23.5852 24.8253 23.8216 24.8253C23.9289 24.8253 24.0377 24.8009 24.1386 24.7495C24.4619 24.5849 24.5818 24.2054 24.4064 23.9018L22.1172 19.9413C22.6476 19.7538 23.2216 19.6504 23.821 19.6504C26.4937 19.6504 28.6681 21.6913 28.6681 24.1999C28.668 26.7087 26.4936 28.7496 23.821 28.7496Z" fill="#1B262C"/>
<path d="M12.8167 3.0949L13.1818 3.20368C13.074 3.94015 13.2088 4.68818 13.5808 5.36131C14.0561 6.22169 14.8601 6.85706 15.8445 7.15027C16.2322 7.2658 16.6251 7.32069 17.0117 7.32069C18.6523 7.32069 20.1787 6.33203 20.7009 4.78777C21.0128 3.86525 20.9232 2.88303 20.4487 2.02209C19.9736 1.1599 19.1694 0.523465 18.1844 0.230067C17.672 0.0773975 17.1273 0 16.5655 0C14.563 0 12.8433 0.949839 12.3834 2.30986C12.3299 2.46791 12.3456 2.63939 12.4268 2.78662C12.5081 2.93385 12.6484 3.04476 12.8167 3.0949ZM16.2475 5.95855C15.602 5.76624 15.0749 5.34974 14.7633 4.78564C14.5564 4.41116 14.4616 4.00123 14.4807 3.59061L19.1446 4.98001C18.5395 5.85952 17.3603 6.28983 16.2475 5.95855ZM16.5655 1.25036C16.9904 1.25036 17.3996 1.30807 17.7815 1.42179C18.427 1.61409 18.9541 2.03128 19.2656 2.59657C19.4718 2.97061 19.5672 3.37942 19.5487 3.78854L14.0096 2.13844C14.5389 1.60728 15.5143 1.25036 16.5655 1.25036Z" fill="#1B262C"/>
</svg>
