<svg width="28" height="20" viewBox="0 0 28 20" fill="none" xmlns="http://www.w3.org/2000/svg">
<path fill-rule="evenodd" clip-rule="evenodd" d="M19.8375 11.4125C21.55 12.575 22.75 14.15 22.75 16.25V20H26.5C27.1875 20 27.75 19.4375 27.75 18.75V16.25C27.75 13.525 23.2875 11.9125 19.8375 11.4125Z" fill="#1B262C"/>
<path d="M10.25 10C13.0114 10 15.25 7.76142 15.25 5C15.25 2.23858 13.0114 0 10.25 0C7.48858 0 5.25 2.23858 5.25 5C5.25 7.76142 7.48858 10 10.25 10Z" fill="#1B262C"/>
<path fill-rule="evenodd" clip-rule="evenodd" d="M17.75 10C20.5125 10 22.75 7.7625 22.75 5C22.75 2.2375 20.5125 0 17.75 0C17.1625 0 16.6125 0.125 16.0875 0.3C17.125 1.5875 17.75 3.225 17.75 5C17.75 6.775 17.125 8.4125 16.0875 9.7C16.6125 9.875 17.1625 10 17.75 10Z" fill="#1B262C"/>
<path fill-rule="evenodd" clip-rule="evenodd" d="M10.25 11.25C6.9125 11.25 0.25 12.925 0.25 16.25V18.75C0.25 19.4375 0.8125 20 1.5 20H19C19.6875 20 20.25 19.4375 20.25 18.75V16.25C20.25 12.925 13.5875 11.25 10.25 11.25Z" fill="#1B262C"/>
</svg>
