<svg width="30" height="30" viewBox="0 0 30 30" fill="none" xmlns="http://www.w3.org/2000/svg">
<g clip-path="url(#clip0_100_1325)">
<path d="M5 23.75H25C25.6875 23.75 26.25 23.1875 26.25 22.5V17.5C26.25 16.8125 25.6875 16.25 25 16.25H5C4.3125 16.25 3.75 16.8125 3.75 17.5V22.5C3.75 23.1875 4.3125 23.75 5 23.75ZM5 13.75H25C25.6875 13.75 26.25 13.1875 26.25 12.5C26.25 11.8125 25.6875 11.25 25 11.25H5C4.3125 11.25 3.75 11.8125 3.75 12.5C3.75 13.1875 4.3125 13.75 5 13.75ZM3.75 7.5C3.75 8.1875 4.3125 8.75 5 8.75H25C25.6875 8.75 26.25 8.1875 26.25 7.5C26.25 6.8125 25.6875 6.25 25 6.25H5C4.3125 6.25 3.75 6.8125 3.75 7.5Z" fill="#1B262C"/>
</g>
<defs>
<clipPath id="clip0_100_1325">
<rect width="30" height="30" fill="white"/>
</clipPath>
</defs>
</svg>
