<svg width="30" height="29" viewBox="0 0 30 29" fill="none" xmlns="http://www.w3.org/2000/svg">
<g clip-path="url(#clip0_372_1473)">
<path fill-rule="evenodd" clip-rule="evenodd" d="M20.8375 15.4125C22.55 16.575 23.75 18.15 23.75 20.25V24H27.5C28.1875 24 28.75 23.4375 28.75 22.75V20.25C28.75 17.525 24.2875 15.9125 20.8375 15.4125Z" fill="#1B262C"/>
<path d="M11.25 14C14.0114 14 16.25 11.7614 16.25 9C16.25 6.23858 14.0114 4 11.25 4C8.48858 4 6.25 6.23858 6.25 9C6.25 11.7614 8.48858 14 11.25 14Z" fill="#1B262C"/>
<path fill-rule="evenodd" clip-rule="evenodd" d="M18.75 14C21.5125 14 23.75 11.7625 23.75 9C23.75 6.2375 21.5125 4 18.75 4C18.1625 4 17.6125 4.125 17.0875 4.3C18.125 5.5875 18.75 7.225 18.75 9C18.75 10.775 18.125 12.4125 17.0875 13.7C17.6125 13.875 18.1625 14 18.75 14Z" fill="#1B262C"/>
<path fill-rule="evenodd" clip-rule="evenodd" d="M11.25 15.25C7.9125 15.25 1.25 16.925 1.25 20.25V22.75C1.25 23.4375 1.8125 24 2.5 24H20C20.6875 24 21.25 23.4375 21.25 22.75V20.25C21.25 16.925 14.5875 15.25 11.25 15.25Z" fill="#1B262C"/>
</g>
<defs>
<clipPath id="clip0_372_1473">
<rect width="30" height="30" fill="white" transform="translate(0 -1)"/>
</clipPath>
</defs>
</svg>
