<svg width="25" height="13" viewBox="0 0 25 13" fill="none" xmlns="http://www.w3.org/2000/svg">
<path d="M1.67969 2.29037H23.7344C24.1211 2.29037 24.4375 1.98569 24.4375 1.59897C24.4375 1.22397 24.1211 0.919281 23.7344 0.919281H1.67969C1.29297 0.919281 0.988281 1.22397 0.988281 1.59897C0.988281 1.98569 1.29297 2.29037 1.67969 2.29037ZM1.67969 7.59897H23.7344C24.1211 7.59897 24.4375 7.29428 24.4375 6.90756C24.4375 6.52084 24.1211 6.21616 23.7344 6.21616H1.67969C1.29297 6.21616 0.988281 6.52084 0.988281 6.90756C0.988281 7.29428 1.29297 7.59897 1.67969 7.59897ZM1.67969 12.8958H23.7344C24.1211 12.8958 24.4375 12.5912 24.4375 12.2044C24.4375 11.8177 24.1211 11.513 23.7344 11.513H1.67969C1.29297 11.513 0.988281 11.8177 0.988281 12.2044C0.988281 12.5912 1.29297 12.8958 1.67969 12.8958Z" fill="white"/>
</svg>
