<svg width="30" height="30" viewBox="0 0 30 30" fill="none" xmlns="http://www.w3.org/2000/svg">
<g clip-path="url(#clip0_372_1445)">
<path d="M18.75 13.75V7.28748C18.75 6.62498 18.4875 5.98748 18.0125 5.52498L15.875 3.38748C15.3875 2.89998 14.6 2.89998 14.1125 3.38748L11.9875 5.51248C11.5125 5.98748 11.25 6.62498 11.25 7.28748V8.74998H6.25C4.875 8.74998 3.75 9.87498 3.75 11.25V23.75C3.75 25.125 4.875 26.25 6.25 26.25H23.75C25.125 26.25 26.25 25.125 26.25 23.75V16.25C26.25 14.875 25.125 13.75 23.75 13.75H18.75ZM8.75 23.75H6.25V21.25H8.75V23.75ZM8.75 18.75H6.25V16.25H8.75V18.75ZM8.75 13.75H6.25V11.25H8.75V13.75ZM16.25 23.75H13.75V21.25H16.25V23.75ZM16.25 18.75H13.75V16.25H16.25V18.75ZM16.25 13.75H13.75V11.25H16.25V13.75ZM16.25 8.74998H13.75V6.24998H16.25V8.74998ZM23.75 23.75H21.25V21.25H23.75V23.75ZM23.75 18.75H21.25V16.25H23.75V18.75Z" fill="#1B262C"/>
</g>
<defs>
<clipPath id="clip0_372_1445">
<rect width="30" height="30" fill="white"/>
</clipPath>
</defs>
</svg>
