<svg width="14" height="14" viewBox="0 0 14 14" fill="none" xmlns="http://www.w3.org/2000/svg">
<path d="M5.50015 1.75H4.15015C3.31007 1.75 2.88972 1.75 2.56885 1.91349C2.2866 2.0573 2.0573 2.2866 1.91349 2.56885C1.75 2.88972 1.75 3.31007 1.75 4.15015V9.85015C1.75 10.6902 1.75 11.11 1.91349 11.4309C2.0573 11.7132 2.2866 11.9429 2.56885 12.0867C2.8894 12.25 3.30925 12.25 4.14768 12.25H9.85232C10.6908 12.25 11.11 12.25 11.4305 12.0867C11.7128 11.9429 11.9429 11.7129 12.0867 11.4307C12.25 11.1101 12.25 10.6908 12.25 9.85232V8.5M13 4.75V1M13 1H9.25M13 1L7.75 6.25" stroke="white" stroke-width="2" stroke-linecap="round" stroke-linejoin="round"/>
</svg>
