<svg width="22" height="8" viewBox="0 0 22 8" fill="none" xmlns="http://www.w3.org/2000/svg">
<path d="M2.79306 0.333344H19.3911C20.0677 0.333344 20.313 0.395227 20.5603 0.511432C20.8077 0.627637 21.0018 0.798163 21.1341 1.01545C21.2663 1.23273 21.3368 1.44825 21.3368 2.0426V5.95742C21.3368 6.55177 21.2663 6.76729 21.1341 6.98458C21.0018 7.20186 20.8077 7.37238 20.5603 7.48859C20.313 7.60479 20.0677 7.66668 19.3911 7.66668H2.79306C2.11651 7.66668 1.87118 7.60479 1.62385 7.48859C1.37651 7.37238 1.18241 7.20186 1.05013 6.98458C0.917854 6.76729 0.847412 6.55177 0.847412 5.95742V2.0426C0.847412 1.44825 0.917854 1.23273 1.05013 1.01545C1.18241 0.798163 1.37651 0.627637 1.62385 0.511432C1.87118 0.395227 2.11651 0.333344 2.79306 0.333344Z" fill="white"/>
</svg>
