<svg width="20" height="12" viewBox="0 0 20 12" fill="none" xmlns="http://www.w3.org/2000/svg">
<path d="M1.52123 7.33332H2.65953C3.28819 7.33332 3.79783 7.78104 3.79783 8.33332V10.3333C3.79783 10.8856 3.28819 11.3333 2.65953 11.3333H1.52123C0.892568 11.3333 0.382935 10.8856 0.382935 10.3333V8.33332C0.382935 7.78104 0.892568 7.33332 1.52123 7.33332ZM6.83328 5.33332H7.97157C8.60024 5.33332 9.10987 5.78104 9.10987 6.33332V10.3333C9.10987 10.8856 8.60024 11.3333 7.97157 11.3333H6.83328C6.20461 11.3333 5.69498 10.8856 5.69498 10.3333V6.33332C5.69498 5.78104 6.20461 5.33332 6.83328 5.33332ZM12.1454 2.99999H13.2837C13.9123 2.99999 14.422 3.4477 14.422 3.99999V10.3333C14.422 10.8856 13.9123 11.3333 13.2837 11.3333H12.1454C11.5167 11.3333 11.0071 10.8856 11.0071 10.3333V3.99999C11.0071 3.4477 11.5167 2.99999 12.1454 2.99999ZM17.4574 0.666656H18.5957C19.2244 0.666656 19.734 1.11437 19.734 1.66666V10.3333C19.734 10.8856 19.2244 11.3333 18.5957 11.3333H17.4574C16.8287 11.3333 16.3191 10.8856 16.3191 10.3333V1.66666C16.3191 1.11437 16.8287 0.666656 17.4574 0.666656Z" fill="white"/>
</svg>
