<svg width="22" height="26" viewBox="0 0 22 26" fill="none" xmlns="http://www.w3.org/2000/svg">
<path d="M3.5 5.5V20.25C3.5 21.6501 3.5 22.3497 3.77248 22.8845C4.01217 23.3549 4.39434 23.7381 4.86475 23.9778C5.399 24.25 6.09874 24.25 7.49614 24.25H14.5039C15.9013 24.25 16.6 24.25 17.1342 23.9778C17.6046 23.7381 17.9881 23.3549 18.2278 22.8845C18.5 22.3502 18.5 21.6513 18.5 20.2539V5.5M3.5 5.5H6M3.5 5.5H1M6 5.5H16M6 5.5C6 4.33515 6 3.75301 6.1903 3.29358C6.44404 2.68101 6.9304 2.19404 7.54297 1.9403C8.0024 1.75 8.58515 1.75 9.75 1.75H12.25C13.4149 1.75 13.9973 1.75 14.4567 1.9403C15.0693 2.19404 15.5558 2.68101 15.8096 3.29358C15.9999 3.75301 16 4.33515 16 5.5M16 5.5H18.5M18.5 5.5H21" stroke="white" stroke-width="2" stroke-linecap="round" stroke-linejoin="round"/>
</svg>
