<svg width="25" height="25" viewBox="0 0 25 25" fill="none" xmlns="http://www.w3.org/2000/svg">
<path d="M8.50024 4H5.00024C3.60011 4 2.89953 4 2.36475 4.27248C1.89434 4.51217 1.51217 4.89434 1.27248 5.36475C1 5.89953 1 6.60011 1 8.00024V20.0002C1 21.4004 1 22.1001 1.27248 22.6349C1.51217 23.1053 1.89434 23.4881 2.36475 23.7278C2.899 24 3.59874 24 4.99614 24H17.0039C18.4013 24 19.1 24 19.6342 23.7278C20.1046 23.4881 20.4881 23.1049 20.7278 22.6345C21 22.1002 21 21.4013 21 20.0039V16.5M16 5.25L8.5 12.75V16.5H12.25L19.75 9M16 5.25L19.75 1.5L23.5 5.25L19.75 9M16 5.25L19.75 9" stroke="white" stroke-width="2" stroke-linecap="round" stroke-linejoin="round"/>
</svg>
