<svg width="32" height="26" viewBox="0 0 32 26" fill="none" xmlns="http://www.w3.org/2000/svg">
<path d="M2.66667 2.66667L12.8461 10.3538L12.8495 10.3566C13.9797 11.1855 14.5452 11.6002 15.1646 11.7604C15.712 11.902 16.2875 11.902 16.835 11.7604C17.4549 11.6 18.022 11.1841 19.1543 10.3538C19.1543 10.3538 25.6835 5.34323 29.3333 2.66667M1 19.0003V6.33366C1 4.46682 1 3.5327 1.36331 2.81966C1.68289 2.19245 2.19245 1.68289 2.81966 1.36331C3.5327 1 4.46682 1 6.33366 1H25.667C27.5338 1 28.466 1 29.179 1.36331C29.8062 1.68289 30.3175 2.19245 30.637 2.81966C31 3.532 31 4.46499 31 6.32818V19.006C31 20.8692 31 21.8008 30.637 22.5131C30.3175 23.1403 29.8062 23.6508 29.179 23.9704C28.4667 24.3333 27.535 24.3333 25.6718 24.3333H6.32818C4.46499 24.3333 3.532 24.3333 2.81966 23.9704C2.19245 23.6508 1.68289 23.1403 1.36331 22.5131C1 21.8001 1 20.8672 1 19.0003Z" stroke="white" stroke-width="2" stroke-linecap="round" stroke-linejoin="round"/>
</svg>
