<svg xmlns="http://www.w3.org/2000/svg" xmlns:xlink="http://www.w3.org/1999/xlink" width="500" zoomAndPan="magnify" viewBox="0 0 375 374.999991" height="500" preserveAspectRatio="xMidYMid meet" version="1.0"><defs><g/></defs><g fill="#ffffff" fill-opacity="1"><g transform="translate(81.398633, 177.382224)"><g><path d="M 32.234375 -18.484375 L 32.234375 -11.3125 C 31.378906 -7.394531 29.507812 -4.429688 26.625 -2.421875 C 23.75 -0.410156 20.539062 0.59375 17 0.59375 C 12.539062 0.59375 8.742188 -1.070312 5.609375 -4.40625 C 2.484375 -7.738281 0.921875 -11.765625 0.921875 -16.484375 C 0.921875 -21.285156 2.453125 -25.335938 5.515625 -28.640625 C 8.585938 -31.941406 12.414062 -33.59375 17 -33.59375 C 22.363281 -33.59375 26.601562 -31.710938 29.71875 -27.953125 L 24.796875 -22.5625 C 23.035156 -25.382812 20.582031 -26.796875 17.4375 -26.796875 C 15.113281 -26.796875 13.132812 -25.789062 11.5 -23.78125 C 9.863281 -21.769531 9.046875 -19.335938 9.046875 -16.484375 C 9.046875 -13.679688 9.863281 -11.285156 11.5 -9.296875 C 13.132812 -7.304688 15.113281 -6.3125 17.4375 -6.3125 C 19.351562 -6.3125 21.023438 -6.890625 22.453125 -8.046875 C 23.878906 -9.210938 24.59375 -10.757812 24.59375 -12.6875 L 17 -12.6875 L 17 -18.484375 Z M 32.234375 -18.484375 "/></g></g></g><g fill="#ffffff" fill-opacity="1"><g transform="translate(114.555336, 177.382224)"><g><path d="M 21.28125 -33 L 21.28125 -26.40625 L 9.921875 -26.40625 L 9.921875 -19.84375 L 20.796875 -19.84375 L 20.796875 -13.234375 L 9.921875 -13.234375 L 9.921875 -6.59375 L 21.28125 -6.59375 L 21.28125 0 L 2.40625 0 L 2.40625 -33 Z M 21.28125 -33 "/></g></g></g><g fill="#ffffff" fill-opacity="1"><g transform="translate(137.753034, 177.382224)"><g><path d="M 2.40625 -33 L 14.203125 -33 C 17.367188 -33 19.953125 -32.148438 21.953125 -30.453125 C 23.953125 -28.765625 24.953125 -26.347656 24.953125 -23.203125 C 24.953125 -20.773438 24.34375 -18.738281 23.125 -17.09375 C 21.914062 -15.457031 20.273438 -14.304688 18.203125 -13.640625 L 29.5625 0 L 20 0 L 9.921875 -13.046875 L 9.921875 0 L 2.40625 0 Z M 9.921875 -18.359375 L 10.796875 -18.359375 C 11.492188 -18.359375 12.082031 -18.367188 12.5625 -18.390625 C 13.039062 -18.421875 13.585938 -18.515625 14.203125 -18.671875 C 14.816406 -18.835938 15.304688 -19.066406 15.671875 -19.359375 C 16.046875 -19.648438 16.367188 -20.078125 16.640625 -20.640625 C 16.910156 -21.203125 17.046875 -21.878906 17.046875 -22.671875 C 17.046875 -23.472656 16.910156 -24.15625 16.640625 -24.71875 C 16.367188 -25.28125 16.046875 -25.707031 15.671875 -26 C 15.304688 -26.289062 14.816406 -26.515625 14.203125 -26.671875 C 13.585938 -26.835938 13.039062 -26.929688 12.5625 -26.953125 C 12.082031 -26.984375 11.492188 -27 10.796875 -27 L 9.921875 -27 Z M 9.921875 -18.359375 "/></g></g></g><g fill="#ffffff" fill-opacity="1"><g transform="translate(166.39019, 177.382224)"><g><path d="M 21.28125 -33 L 21.28125 -26.40625 L 9.921875 -26.40625 L 9.921875 -19.84375 L 20.796875 -19.84375 L 20.796875 -13.234375 L 9.921875 -13.234375 L 9.921875 -6.59375 L 21.28125 -6.59375 L 21.28125 0 L 2.40625 0 L 2.40625 -33 Z M 21.28125 -33 "/></g></g></g><g fill="#ffffff" fill-opacity="1"><g transform="translate(189.587889, 177.382224)"><g><path d="M 9.921875 -20.484375 L 9.921875 0 L 2.40625 0 L 2.40625 -33 L 9.921875 -33 L 23.046875 -12.515625 L 23.125 -12.515625 L 23.125 -33 L 30.640625 -33 L 30.640625 0 L 23.125 0 L 10 -20.484375 Z M 9.921875 -20.484375 "/></g></g></g><g fill="#ffffff" fill-opacity="1"><g transform="translate(222.62461, 177.382224)"><g><path d="M 19.953125 -6.796875 C 21.109375 -6.796875 22.222656 -6.96875 23.296875 -7.3125 C 24.378906 -7.664062 25.175781 -8 25.6875 -8.3125 L 26.4375 -8.84375 L 29.640625 -2.4375 C 29.535156 -2.351562 29.390625 -2.242188 29.203125 -2.109375 C 29.015625 -1.984375 28.578125 -1.738281 27.890625 -1.375 C 27.210938 -1.019531 26.488281 -0.707031 25.71875 -0.4375 C 24.945312 -0.175781 23.929688 0.0546875 22.671875 0.265625 C 21.421875 0.484375 20.128906 0.59375 18.796875 0.59375 C 15.734375 0.59375 12.828125 -0.15625 10.078125 -1.65625 C 7.328125 -3.164062 5.113281 -5.238281 3.4375 -7.875 C 1.757812 -10.519531 0.921875 -13.375 0.921875 -16.4375 C 0.921875 -18.757812 1.410156 -20.984375 2.390625 -23.109375 C 3.378906 -25.242188 4.691406 -27.070312 6.328125 -28.59375 C 7.972656 -30.113281 9.890625 -31.328125 12.078125 -32.234375 C 14.265625 -33.140625 16.503906 -33.59375 18.796875 -33.59375 C 20.929688 -33.59375 22.898438 -33.335938 24.703125 -32.828125 C 26.503906 -32.328125 27.773438 -31.820312 28.515625 -31.3125 L 29.640625 -30.5625 L 26.4375 -24.15625 C 26.25 -24.320312 25.96875 -24.515625 25.59375 -24.734375 C 25.226562 -24.960938 24.484375 -25.265625 23.359375 -25.640625 C 22.242188 -26.015625 21.109375 -26.203125 19.953125 -26.203125 C 18.140625 -26.203125 16.515625 -25.90625 15.078125 -25.3125 C 13.640625 -24.726562 12.5 -23.957031 11.65625 -23 C 10.820312 -22.039062 10.179688 -21.003906 9.734375 -19.890625 C 9.296875 -18.785156 9.078125 -17.660156 9.078125 -16.515625 C 9.078125 -14.015625 10.015625 -11.769531 11.890625 -9.78125 C 13.773438 -7.789062 16.460938 -6.796875 19.953125 -6.796875 Z M 19.953125 -6.796875 "/></g></g></g><g fill="#ffffff" fill-opacity="1"><g transform="translate(252.741613, 177.382224)"><g><path d="M 9.921875 -33 L 9.921875 0 L 2.40625 0 L 2.40625 -33 Z M 9.921875 -33 "/></g></g></g><g fill="#ffffff" fill-opacity="1"><g transform="translate(265.060387, 177.382224)"><g><path d="M 19.15625 -33 L 32.484375 0 L 24.40625 0 L 21.953125 -6.59375 L 9.40625 -6.59375 L 6.953125 0 L -1.125 0 L 12.203125 -33 Z M 19.40625 -13.203125 L 15.71875 -22.796875 L 15.640625 -22.796875 L 11.953125 -13.203125 Z M 19.40625 -13.203125 "/></g></g></g><g fill="#ffffff" fill-opacity="1"><g transform="translate(296.425967, 177.382224)"><g/></g></g><g fill="#ffffff" fill-opacity="1"><g transform="translate(141.072469, 217.11775)"><g><path d="M 2.40625 0 L 2.40625 -28.203125 L 15.3125 -28.203125 C 18.113281 -28.203125 20.28125 -27.539062 21.8125 -26.21875 C 23.351562 -24.894531 24.125 -23.019531 24.125 -20.59375 C 24.125 -19.050781 23.734375 -17.757812 22.953125 -16.71875 C 22.179688 -15.675781 21.09375 -14.96875 19.6875 -14.59375 L 19.6875 -14.5625 C 21.382812 -14.21875 22.691406 -13.460938 23.609375 -12.296875 C 24.535156 -11.140625 25 -9.664062 25 -7.875 C 25 -5.375 24.15625 -3.4375 22.46875 -2.0625 C 20.789062 -0.6875 18.421875 0 15.359375 0 Z M 5.71875 -16 L 14.921875 -16 C 16.816406 -16 18.273438 -16.398438 19.296875 -17.203125 C 20.328125 -18.003906 20.84375 -19.132812 20.84375 -20.59375 C 20.84375 -22.0625 20.328125 -23.203125 19.296875 -24.015625 C 18.273438 -24.828125 16.816406 -25.234375 14.921875 -25.234375 L 5.71875 -25.234375 Z M 5.71875 -2.953125 L 14.921875 -2.953125 C 17.054688 -2.953125 18.722656 -3.390625 19.921875 -4.265625 C 21.117188 -5.148438 21.71875 -6.410156 21.71875 -8.046875 C 21.71875 -9.617188 21.117188 -10.84375 19.921875 -11.71875 C 18.722656 -12.601562 17.054688 -13.046875 14.921875 -13.046875 L 5.71875 -13.046875 Z M 5.71875 -2.953125 "/></g></g></g><g fill="#ffffff" fill-opacity="1"><g transform="translate(171.909868, 217.11775)"><g><path d="M 2.40625 0 L 2.40625 -28.203125 L 5.71875 -28.203125 L 5.71875 0 Z M 2.40625 0 "/></g></g></g><g fill="#ffffff" fill-opacity="1"><g transform="translate(184.66906, 217.11775)"><g><path d="M 2.40625 0 L 2.40625 -28.203125 L 5.71875 -28.203125 L 5.71875 -15.078125 L 5.765625 -15.078125 L 17.640625 -28.203125 L 21.71875 -28.203125 L 11.5625 -17 L 22.4375 0 L 18.515625 0 L 9.40625 -14.640625 L 5.71875 -10.765625 L 5.71875 0 Z M 2.40625 0 "/></g></g></g><g fill="#ffffff" fill-opacity="1"><g transform="translate(212.146787, 217.11775)"><g><path d="M 2.40625 0 L 2.40625 -28.203125 L 21.6875 -28.203125 L 21.6875 -25.234375 L 5.640625 -25.234375 L 5.640625 -16 L 20.078125 -16 L 20.078125 -13.125 L 5.640625 -13.125 L 5.640625 -2.953125 L 22.078125 -2.953125 L 22.078125 0 Z M 2.40625 0 "/></g></g></g><g fill="#ffffff" fill-opacity="1"><g transform="translate(261.72286, 206.013488)"><g><path d="M 3.84375 0.484375 C 3.175781 0.484375 2.632812 0.273438 2.21875 -0.140625 C 1.800781 -0.554688 1.59375 -1.097656 1.59375 -1.765625 C 1.59375 -2.398438 1.800781 -2.921875 2.21875 -3.328125 C 2.632812 -3.742188 3.175781 -3.953125 3.84375 -3.953125 C 4.507812 -3.953125 5.054688 -3.742188 5.484375 -3.328125 C 5.910156 -2.921875 6.125 -2.398438 6.125 -1.765625 C 6.125 -1.097656 5.910156 -0.554688 5.484375 -0.140625 C 5.054688 0.273438 4.507812 0.484375 3.84375 0.484375 Z M 3.84375 0.484375 "/></g></g></g><g fill="#ffffff" fill-opacity="1"><g transform="translate(269.442093, 206.013488)"><g><path d="M 3.84375 0.484375 C 3.175781 0.484375 2.632812 0.273438 2.21875 -0.140625 C 1.800781 -0.554688 1.59375 -1.097656 1.59375 -1.765625 C 1.59375 -2.398438 1.800781 -2.921875 2.21875 -3.328125 C 2.632812 -3.742188 3.175781 -3.953125 3.84375 -3.953125 C 4.507812 -3.953125 5.054688 -3.742188 5.484375 -3.328125 C 5.910156 -2.921875 6.125 -2.398438 6.125 -1.765625 C 6.125 -1.097656 5.910156 -0.554688 5.484375 -0.140625 C 5.054688 0.273438 4.507812 0.484375 3.84375 0.484375 Z M 3.84375 0.484375 "/></g></g></g><g fill="#ffffff" fill-opacity="1"><g transform="translate(277.161327, 206.013488)"><g><path d="M 3.84375 0.484375 C 3.175781 0.484375 2.632812 0.273438 2.21875 -0.140625 C 1.800781 -0.554688 1.59375 -1.097656 1.59375 -1.765625 C 1.59375 -2.398438 1.800781 -2.921875 2.21875 -3.328125 C 2.632812 -3.742188 3.175781 -3.953125 3.84375 -3.953125 C 4.507812 -3.953125 5.054688 -3.742188 5.484375 -3.328125 C 5.910156 -2.921875 6.125 -2.398438 6.125 -1.765625 C 6.125 -1.097656 5.910156 -0.554688 5.484375 -0.140625 C 5.054688 0.273438 4.507812 0.484375 3.84375 0.484375 Z M 3.84375 0.484375 "/></g></g></g><g fill="#ffffff" fill-opacity="1"><g transform="translate(284.880561, 206.013488)"><g><path d="M 3.84375 0.484375 C 3.175781 0.484375 2.632812 0.273438 2.21875 -0.140625 C 1.800781 -0.554688 1.59375 -1.097656 1.59375 -1.765625 C 1.59375 -2.398438 1.800781 -2.921875 2.21875 -3.328125 C 2.632812 -3.742188 3.175781 -3.953125 3.84375 -3.953125 C 4.507812 -3.953125 5.054688 -3.742188 5.484375 -3.328125 C 5.910156 -2.921875 6.125 -2.398438 6.125 -1.765625 C 6.125 -1.097656 5.910156 -0.554688 5.484375 -0.140625 C 5.054688 0.273438 4.507812 0.484375 3.84375 0.484375 Z M 3.84375 0.484375 "/></g></g></g><g fill="#ffffff" fill-opacity="1"><g transform="translate(292.599795, 206.013488)"><g><path d="M 3.84375 0.484375 C 3.175781 0.484375 2.632812 0.273438 2.21875 -0.140625 C 1.800781 -0.554688 1.59375 -1.097656 1.59375 -1.765625 C 1.59375 -2.398438 1.800781 -2.921875 2.21875 -3.328125 C 2.632812 -3.742188 3.175781 -3.953125 3.84375 -3.953125 C 4.507812 -3.953125 5.054688 -3.742188 5.484375 -3.328125 C 5.910156 -2.921875 6.125 -2.398438 6.125 -1.765625 C 6.125 -1.097656 5.910156 -0.554688 5.484375 -0.140625 C 5.054688 0.273438 4.507812 0.484375 3.84375 0.484375 Z M 3.84375 0.484375 "/></g></g></g><g fill="#ffffff" fill-opacity="1"><g transform="translate(74.670736, 206.013488)"><g><path d="M 3.84375 0.484375 C 3.175781 0.484375 2.632812 0.273438 2.21875 -0.140625 C 1.800781 -0.554688 1.59375 -1.097656 1.59375 -1.765625 C 1.59375 -2.398438 1.800781 -2.921875 2.21875 -3.328125 C 2.632812 -3.742188 3.175781 -3.953125 3.84375 -3.953125 C 4.507812 -3.953125 5.054688 -3.742188 5.484375 -3.328125 C 5.910156 -2.921875 6.125 -2.398438 6.125 -1.765625 C 6.125 -1.097656 5.910156 -0.554688 5.484375 -0.140625 C 5.054688 0.273438 4.507812 0.484375 3.84375 0.484375 Z M 3.84375 0.484375 "/></g></g></g><g fill="#ffffff" fill-opacity="1"><g transform="translate(82.38997, 206.013488)"><g><path d="M 3.84375 0.484375 C 3.175781 0.484375 2.632812 0.273438 2.21875 -0.140625 C 1.800781 -0.554688 1.59375 -1.097656 1.59375 -1.765625 C 1.59375 -2.398438 1.800781 -2.921875 2.21875 -3.328125 C 2.632812 -3.742188 3.175781 -3.953125 3.84375 -3.953125 C 4.507812 -3.953125 5.054688 -3.742188 5.484375 -3.328125 C 5.910156 -2.921875 6.125 -2.398438 6.125 -1.765625 C 6.125 -1.097656 5.910156 -0.554688 5.484375 -0.140625 C 5.054688 0.273438 4.507812 0.484375 3.84375 0.484375 Z M 3.84375 0.484375 "/></g></g></g><g fill="#ffffff" fill-opacity="1"><g transform="translate(90.109204, 206.013488)"><g><path d="M 3.84375 0.484375 C 3.175781 0.484375 2.632812 0.273438 2.21875 -0.140625 C 1.800781 -0.554688 1.59375 -1.097656 1.59375 -1.765625 C 1.59375 -2.398438 1.800781 -2.921875 2.21875 -3.328125 C 2.632812 -3.742188 3.175781 -3.953125 3.84375 -3.953125 C 4.507812 -3.953125 5.054688 -3.742188 5.484375 -3.328125 C 5.910156 -2.921875 6.125 -2.398438 6.125 -1.765625 C 6.125 -1.097656 5.910156 -0.554688 5.484375 -0.140625 C 5.054688 0.273438 4.507812 0.484375 3.84375 0.484375 Z M 3.84375 0.484375 "/></g></g></g><g fill="#ffffff" fill-opacity="1"><g transform="translate(97.828438, 206.013488)"><g><path d="M 3.84375 0.484375 C 3.175781 0.484375 2.632812 0.273438 2.21875 -0.140625 C 1.800781 -0.554688 1.59375 -1.097656 1.59375 -1.765625 C 1.59375 -2.398438 1.800781 -2.921875 2.21875 -3.328125 C 2.632812 -3.742188 3.175781 -3.953125 3.84375 -3.953125 C 4.507812 -3.953125 5.054688 -3.742188 5.484375 -3.328125 C 5.910156 -2.921875 6.125 -2.398438 6.125 -1.765625 C 6.125 -1.097656 5.910156 -0.554688 5.484375 -0.140625 C 5.054688 0.273438 4.507812 0.484375 3.84375 0.484375 Z M 3.84375 0.484375 "/></g></g></g><g fill="#ffffff" fill-opacity="1"><g transform="translate(105.547672, 206.013488)"><g><path d="M 3.84375 0.484375 C 3.175781 0.484375 2.632812 0.273438 2.21875 -0.140625 C 1.800781 -0.554688 1.59375 -1.097656 1.59375 -1.765625 C 1.59375 -2.398438 1.800781 -2.921875 2.21875 -3.328125 C 2.632812 -3.742188 3.175781 -3.953125 3.84375 -3.953125 C 4.507812 -3.953125 5.054688 -3.742188 5.484375 -3.328125 C 5.910156 -2.921875 6.125 -2.398438 6.125 -1.765625 C 6.125 -1.097656 5.910156 -0.554688 5.484375 -0.140625 C 5.054688 0.273438 4.507812 0.484375 3.84375 0.484375 Z M 3.84375 0.484375 "/></g></g></g></svg>